<svg xmlns="http://www.w3.org/2000/svg" width="160" height="160" viewBox="0 0 160 160">
    <g fill="none" fill-rule="evenodd">
        <path fill="#FFF" d="M154.973 62.963c.24 1.56-.84 3.12-2.4 3.42-.18 0-.36.06-.54.06-.42 0-.78-.12-1.08-.24 0 0-12.72-4.86-26.52-5.88 2.94 7.02 5.28 14.28 7.08 21.6v.06c2.22 9.3.24 19.08-5.4 26.82l-13.26 17.94c-.12 3.12-1.98 5.76-4.92 6.9-.48.18-.9.3-1.38.36l-2.64 2.4c-2.04 1.86-4.74 2.88-7.56 2.88-.3 0-.66 0-.96-.06-3.12-.3-6-1.86-7.92-4.32a5.372 5.372 0 0 0-4.26-2.1h-6.42c-1.62 0-3.24.78-4.2 2.1-1.92 2.46-4.8 4.02-7.92 4.32-3.12.3-6.24-.72-8.58-2.82l-2.64-2.4c-.48-.06-.9-.18-1.38-.36-2.88-1.14-4.8-3.78-4.92-6.9l-13.26-17.94a32.727 32.727 0 0 1-5.4-26.88c1.8-7.32 4.2-14.58 7.14-21.6-13.86 1.02-26.4 5.82-26.52 5.88 0 0-.72.24-1.08.24-.18 0-.36-.06-.54-.06-1.62-.3-2.7-1.86-2.46-3.42l2.82-16.98c1.5-9.24 7.38-17.34 15.66-21.6 8.58-4.5 18.84-4.5 27.42-.06l4.92 2.52c1.38-.42 2.82-.6 4.26-.42l16.62 1.5c2.16.18 4.38.18 6.54 0l16.62-1.5c1.44-.18 2.88 0 4.26.42l4.92-2.52c8.58-4.44 18.84-4.44 27.42.06 8.28 4.26 14.16 12.36 15.66 21.6l2.82 16.98z"/>
        <path fill="#000" d="M39.712 52.16l6.42-12.66c-2.1-1.44-7.14-3.6-16.86-1.32-9.54 2.22-14.7 14.28-16.92 21.36 5.82-1.8 15.66-4.32 25.98-4.62.48-.9.9-1.86 1.38-2.76zm9.6-19.02c.3-.6.66-1.14 1.08-1.68l-2.16-1.14c-6.9-3.54-15.12-3.54-21.96.06a23.296 23.296 0 0 0-9 8.22c2.88-2.94 6.42-5.28 10.62-6.24 10.8-2.52 17.4-.3 20.88 1.8l.54-1.02zm27.72 7.26v-5.76c-.3 0-.54 0-.84-.06l-16.62-1.5c-2.04-.18-3.96.9-4.92 2.76l-9.6 19.02c-4.68 9.24-8.28 19.08-10.74 29.22-1.8 7.62-.24 15.54 4.44 21.9l8.4 11.4V98.36c0-12.54 6.9-23.88 18-29.64 3.42-1.74 5.58-5.34 5.58-9.3v-10.2c0-4.08 2.64-7.56 6.3-8.82zm14.64 48.54c.24-.66.36-1.32.36-1.98 0-1.02-.54-6.18-11.34-6.42h-1.38c-10.8.24-11.34 5.4-11.34 6.42 0 .66.12 1.32.36 1.98 3.36-.54 6.72 1.26 8.16 4.44l.84 1.86c1.74.24 3.6.24 5.4 0l.78-1.86c1.44-3.18 4.8-4.98 8.16-4.44zm8.16 43.8c-.12-.18-.24-.3-.36-.48l-16.68-18.66c-1.08-1.2-1.98-2.52-2.76-3.9-.84 1.38-1.74 2.7-2.82 3.9l-16.62 18.66c-.18.18-.3.3-.42.48 1.08.96 2.46 1.38 3.96 1.26 1.5-.12 2.82-.84 3.72-2.04 2.1-2.76 5.46-4.38 8.94-4.38h6.42c3.48 0 6.84 1.62 8.94 4.38.96 1.2 2.28 1.92 3.78 2.04 1.44.12 2.82-.3 3.9-1.26zm7.08-5.58V98c0-10.14-5.64-19.38-14.76-24-5.46-2.76-8.82-8.34-8.82-14.58v-10.2c0-1.86-1.5-3.36-3.3-3.36-1.86 0-3.36 1.5-3.36 3.36v10.2c0 6.24-3.36 11.82-8.82 14.64-9.06 4.68-14.76 14.04-14.76 24.36v28.74c0 1.08.78 1.5 1.14 1.62.3.12 1.14.3 1.86-.48l16.68-18.66c2.1-2.4 3.48-5.34 4.02-8.46-.78-.12-1.56-.24-2.34-.48-.9-.24-1.62-.84-1.98-1.68l-1.44-3.18c-.36-.78-1.2-1.2-1.98-.9l-1.26.42c-1.2.36-2.58-.06-3.36-1.08-1.56-2.22-2.4-4.74-2.4-7.32 0-7.38 6.54-12.12 17.16-12.42h1.68c10.56.3 17.16 5.04 17.16 12.42 0 2.58-.9 5.1-2.46 7.32-.78 1.02-2.16 1.44-3.36 1.08l-1.26-.42c-.78-.3-1.62.12-1.98.9l-1.44 3.18c-.36.84-1.08 1.44-1.98 1.68-.78.24-1.56.36-2.34.48.54 3.12 1.92 6.06 4.08 8.46l16.62 18.66c.72.78 1.56.6 1.86.48.36-.12 1.14-.54 1.14-1.62zm14.4-21.18l-8.4 11.4V98c0-12.42-6.9-23.64-18-29.28-3.48-1.8-5.58-5.34-5.58-9.3v-10.2c0-4.08-2.7-7.56-6.36-8.82v-5.76c.3 0 .54 0 .84-.06l16.62-1.5c2.04-.18 4.02.9 4.92 2.76l9.6 19.02c4.68 9.24 8.28 19.08 10.74 29.16v.06c1.86 7.62.24 15.54-4.38 21.9zm21.42-67.38c-2.88-2.94-6.42-5.28-10.62-6.24-10.8-2.52-17.4-.3-20.88 1.8l-.54-1.02c-.3-.6-.66-1.14-1.02-1.68l2.16-1.14c6.84-3.54 15.06-3.54 21.9.06 3.72 1.92 6.78 4.74 9 8.22zm4.92 20.94c-2.22-7.14-7.44-19.14-16.92-21.36-9.72-2.28-14.76-.06-16.8 1.32l6.36 12.66c.48.9.9 1.86 1.38 2.76 10.32.3 20.16 2.82 25.98 4.62zm7.32 4.14c.24 1.56-.84 3.12-2.4 3.42-.18 0-.36.06-.54.06-.42 0-.78-.12-1.08-.24 0 0-12.72-4.86-26.52-5.88 2.94 7.02 5.28 14.28 7.08 21.6v.06c2.22 9.3.24 19.08-5.4 26.82l-13.26 17.94c-.12 3.12-1.98 5.76-4.92 6.9-.48.18-.9.3-1.38.36l-2.64 2.4c-2.04 1.86-4.74 2.88-7.56 2.88-.3 0-.66 0-.96-.06-3.12-.3-6-1.86-7.92-4.32a5.372 5.372 0 0 0-4.26-2.1h-6.42c-1.62 0-3.24.78-4.2 2.1-1.92 2.46-4.8 4.02-7.92 4.32-3.12.3-6.24-.72-8.58-2.82l-2.64-2.4c-.48-.06-.9-.18-1.38-.36-2.88-1.14-4.8-3.78-4.92-6.9l-13.26-17.94a32.727 32.727 0 0 1-5.4-26.88c1.8-7.32 4.2-14.58 7.14-21.6-13.86 1.02-26.4 5.82-26.52 5.88 0 0-.72.24-1.08.24-.18 0-.36-.06-.54-.06-1.62-.3-2.7-1.86-2.46-3.42l2.82-16.98c1.5-9.24 7.38-17.34 15.66-21.6 8.58-4.5 18.84-4.5 27.42-.06l4.92 2.52c1.38-.42 2.82-.6 4.26-.42l16.62 1.5c2.16.18 4.38.18 6.54 0l16.62-1.5c1.44-.18 2.88 0 4.26.42l4.92-2.52c8.58-4.44 18.84-4.44 27.42.06 8.28 4.26 14.16 12.36 15.66 21.6l2.82 16.98z"/>
        <path fill="#F9AD30" d="M130.94 37.967C140.498 40.153 145.762 51.97 148 59c-5.868-1.772-15.79-4.254-26.196-4.55-.484-.885-.907-1.83-1.391-2.717L114 39.267c2.057-1.359 7.139-3.545 16.94-1.3"/>
        <path fill="#FFF" d="M107 98.123v29.15c0 1.08-.783 1.5-1.144 1.62-.3.12-1.144.3-1.866-.48l-16.676-18.654c-2.167-2.4-3.551-5.338-4.093-8.457.782-.12 1.565-.24 2.348-.48.903-.24 1.625-.84 1.986-1.68L89 95.963c.361-.78 1.204-1.2 1.987-.9l1.264.42c1.204.36 2.588-.06 3.371-1.08 1.565-2.218 2.468-4.738 2.468-7.317 0-7.377-6.622-12.116-17.217-12.416h-1.686c-10.655.3-17.217 5.039-17.217 12.416 0 2.58.843 5.099 2.408 7.318.783 1.02 2.167 1.44 3.371 1.08l1.264-.42c.783-.3 1.626.12 1.987.9l1.445 3.178c.361.84 1.083 1.44 1.986 1.68.783.24 1.566.36 2.348.48a17.311 17.311 0 0 1-4.033 8.457L56.01 128.413c-.722.78-1.565.6-1.866.48-.361-.12-1.144-.54-1.144-1.62v-28.73c0-10.317 5.72-19.674 14.81-24.352 5.478-2.82 8.849-8.398 8.849-14.636V49.36A3.36 3.36 0 0 1 80.03 46c1.806 0 3.311 1.5 3.311 3.359v10.196c0 6.238 3.371 11.817 8.85 14.576C101.34 78.749 107 87.986 107 98.123"/>
        <path fill="#F9AD30" d="M46 39.278l-6.462 12.459c-.483.886-.906 1.83-1.389 2.716C27.762 54.748 17.858 57.23 12 59c2.234-6.968 7.428-18.837 17.03-21.022 9.783-2.243 14.856-.118 16.97 1.3"/>
        <path fill="#000" d="M109.31 62.857c-.668-1.513-1.701-3.208-2.977-3.692-.183-.06-.365-.06-.608-.121-1.701-.182-2.37 1.21-2.491 1.634-.182.484-.547 1.937.911 2.906.183.12.365.181.486.242 1.337.484 3.22-.182 4.68-.969m6.622.666c.243 1.15-.182 2.36-1.154 3.027-.547.423-4.68 3.45-9.175 3.45-.973 0-2.005-.121-2.978-.484a12.772 12.772 0 0 1-1.822-.908c-3.342-2.18-4.618-6.174-3.282-9.927 1.398-3.814 4.983-6.054 8.932-5.63.669.121 1.276.242 1.945.484 5.468 1.937 7.29 9.14 7.534 9.988M57.828 63.584c1.458-.969 1.094-2.422.911-2.906-.121-.424-.79-1.816-2.492-1.634-.243.06-.425.06-.607.12-1.277.485-2.31 2.18-2.979 3.693 1.459.787 3.404 1.453 4.68.969.183-.06.365-.121.487-.242m6.625-4.903A8.52 8.52 0 0 1 65 61.647c0 2.784-1.337 5.326-3.83 6.96-.607.364-1.154.667-1.823.909-.972.363-2.006.484-2.978.484-4.498 0-8.631-3.027-9.178-3.45-.973-.666-1.398-1.877-1.094-3.027.182-.847 2.006-8.05 7.476-9.988.669-.242 1.276-.363 1.945-.484 4.012-.424 7.537 1.816 8.935 5.63"/>
    </g>
</svg>
